<svg xmlns="http://www.w3.org/2000/svg" xmlns:xlink="http://www.w3.org/1999/xlink" width="1920" zoomAndPan="magnify" viewBox="0 0 1440 809.999993" height="1080" preserveAspectRatio="xMidYMid meet" version="1.0"><rect x="-144" width="1728" fill="#ffffff" y="-80.999999" height="971.999992" fill-opacity="1"/><rect x="-144" width="1728" fill="#ffffff" y="-80.999999" height="971.999992" fill-opacity="1"/><path fill="#d5e639" d="M -7.886719 1271.40625 C 13.441406 1314.457031 34.8125 1357.390625 56.746094 1399.855469 L -30.386719 1399.855469 L -30.386719 1224.597656 C -22.816406 1240.71875 -15.335938 1256.375 -7.886719 1271.40625 Z M 342.53125 637.902344 C 307.03125 599.566406 232.238281 581.015625 184.621094 566.488281 C 113.992188 544.929688 41.90625 529.125 -30.386719 514.117188 L -30.386719 554.195312 C -6.007812 559.785156 18.257812 565.851562 42.347656 572.6875 C 158.226562 605.578125 236.828125 668.660156 272.035156 782.625 C 315.9375 924.734375 284.261719 1101.796875 292.128906 1249.148438 C 295.195312 1306.660156 298.6875 1348.109375 315.035156 1399.859375 L 393.882812 1399.859375 C 396.265625 1340.253906 400.949219 1280.714844 404.691406 1221.945312 C 413.441406 1084.601562 427.347656 943.019531 404.933594 806.242188 C 396.09375 752.289062 381.285156 679.742188 342.53125 637.902344 Z M 631.300781 746.070312 C 620.449219 605.015625 535.066406 546.710938 406.816406 504.894531 C 264.339844 458.4375 115.265625 436.015625 -30.386719 401.183594 L -30.386719 466.480469 C 85.175781 492.59375 201.753906 514.960938 314.300781 551.957031 C 441.839844 593.882812 518.609375 643.742188 535.078125 783.515625 C 551.855469 925.933594 522.078125 1073.269531 500.496094 1213.632812 C 492.140625 1267.988281 479.574219 1332.628906 470.3125 1399.855469 L 532.8125 1399.855469 C 545.429688 1316.589844 565.4375 1235.449219 578.105469 1171.621094 C 605.535156 1033.425781 642.214844 887.976562 631.300781 746.070312 Z M 707.316406 976.738281 C 735.652344 829.515625 778.359375 668.9375 757.734375 517.96875 C 737.34375 368.695312 622.691406 354.203125 496.589844 316.3125 C 341.75 269.78125 139.390625 230.949219 -30.386719 153.085938 L -30.386719 282.667969 C 125.09375 329.4375 286.003906 355.707031 441.785156 401.417969 C 566.882812 438.121094 675.421875 473.636719 694.65625 616.800781 C 714.882812 767.371094 672.75 927.3125 644.046875 1074.066406 C 627.042969 1161.003906 595.546875 1282.933594 587.105469 1399.855469 L 646.277344 1399.855469 C 640.980469 1255.277344 686.023438 1087.363281 707.316406 976.738281 Z M 823.546875 814.324219 C 853.582031 670.96875 909.441406 494.4375 873.894531 347.347656 C 841.804688 214.566406 698.484375 234.132812 589.058594 197.054688 C 363.710938 120.699219 189.597656 -45.613281 -16.539062 -154.804688 L -30.386719 -154.804688 L -30.386719 -9.863281 C 147.582031 97.582031 338.328125 183.925781 536.484375 246.90625 C 660.261719 286.246094 794.589844 281.035156 817.753906 433.363281 C 840.546875 583.226562 795.351562 745.25 766.488281 891.210938 C 740.210938 1024.074219 678.816406 1239.332031 709.558594 1399.855469 L 782.304688 1399.855469 C 706.054688 1236.578125 791.714844 966.242188 823.546875 814.324219 Z M 1057.445312 1377.21875 C 735.105469 1312.222656 887.710938 890.09375 939.027344 674.359375 C 969.96875 544.257812 1024.992188 386.050781 998.546875 251.46875 C 987.28125 194.140625 964.363281 168.25 906.789062 156.183594 C 825.382812 139.125 747.003906 143.886719 668.019531 110.226562 C 542.132812 56.574219 474.125 -47.757812 399.902344 -154.804688 L 229.035156 -154.804688 C 254.746094 -134.050781 280.066406 -111.066406 305.617188 -85.886719 C 399.496094 6.636719 491.355469 96.394531 615.785156 146.472656 C 728.722656 191.921875 909.0625 157.527344 935.945312 303.742188 C 962.027344 445.609375 910.851562 605.71875 880.371094 743.175781 C 839.625 926.917969 729.046875 1262.441406 891.070312 1399.851562 L 1524.132812 1399.851562 L 1524.132812 1361.402344 C 1370.070312 1361.101562 1204.222656 1406.808594 1057.445312 1377.21875 Z M 1183.394531 1231.125 C 848.3125 1170.488281 1011.867188 750.628906 1069.402344 532.015625 C 1099.914062 416.09375 1169.105469 246.324219 1133.375 124.6875 C 1116.730469 68.015625 1085.042969 63.160156 1030.140625 61.171875 C 933.523438 57.664062 836.027344 61.429688 749.125 11.285156 C 679.488281 -28.898438 643.824219 -88.238281 619.90625 -154.804688 L 521.289062 -154.804688 C 561.382812 -67.117188 608.324219 14.449219 700.464844 61.875 C 740.398438 82.429688 783.839844 94.128906 827.851562 101.804688 C 879.066406 110.738281 943.992188 100.210938 992.085938 113.15625 C 1036.671875 125.167969 1055.558594 151.367188 1064.539062 196.832031 C 1090.140625 326.386719 1032.519531 481.109375 1001.351562 605.09375 C 946.105469 824.859375 788.421875 1244.835938 1122.386719 1304.535156 C 1240.878906 1325.71875 1385.804688 1295.210938 1524.132812 1286.195312 L 1524.132812 1225.609375 C 1411.28125 1235.28125 1294.976562 1251.320312 1183.394531 1231.125 Z M 1362.707031 1091.546875 C 1238.246094 1070.746094 1178.8125 1012.078125 1174.953125 883.242188 C 1169.84375 712.808594 1227.207031 539.300781 1267.777344 375.839844 C 1299.160156 249.390625 1357.246094 85.679688 1322.621094 -45.699219 C 1306.832031 -105.605469 1275.800781 -125.261719 1216.816406 -130.636719 C 1134.488281 -138.132812 1055.023438 -129.765625 977.402344 -154.804688 L 738.882812 -154.804688 C 759.515625 -120.875 787.816406 -91.203125 828.535156 -68.34375 C 933.195312 -9.59375 1035.445312 -40.324219 1146.207031 -24.878906 C 1189.242188 -18.875 1213.261719 -3.839844 1225.136719 40.082031 C 1258.820312 164.65625 1189.277344 331.714844 1156.875 450.054688 C 1114.457031 604.976562 1056.648438 770.316406 1058.386719 932.832031 C 1059.8125 1065.648438 1127.34375 1134.132812 1255.894531 1157.609375 C 1343.738281 1173.648438 1434.550781 1167.261719 1524.136719 1159.835938 L 1524.136719 1095.585938 C 1466.777344 1099.304688 1411.992188 1099.78125 1362.707031 1091.546875 Z M 1435.085938 780.71875 C 1409.054688 616.789062 1458.976562 426.035156 1470.203125 261.929688 C 1479.417969 127.234375 1494.476562 -28.242188 1436.3125 -154.804688 L 1367.339844 -154.804688 C 1376.089844 -142.753906 1383.632812 -128.574219 1389.683594 -111.765625 C 1436.949219 19.4375 1395.835938 184.269531 1372.808594 316.296875 C 1345.058594 475.382812 1305.027344 638.503906 1311.054688 801.054688 C 1316.039062 935.601562 1359.867188 1009.441406 1495.128906 1030.113281 C 1504.664062 1031.570312 1514.339844 1032.71875 1524.132812 1033.605469 L 1524.132812 845.289062 C 1481.875 855.585938 1443.523438 833.847656 1435.085938 780.71875 Z M 1490.355469 -154.804688 C 1504.480469 -124.546875 1515.484375 -92.886719 1524.132812 -60.394531 L 1524.132812 -154.804688 Z M -30.386719 627.132812 L -30.386719 999.652344 C 123.539062 1159 157.664062 1399.855469 157.664062 1399.855469 L 257.945312 1399.855469 C 257.945312 1399.855469 218.109375 1287.746094 218.089844 1137.019531 C 220.660156 668.710938 -30.386719 627.132812 -30.386719 627.132812 Z M -30.386719 627.132812 " fill-opacity="1" fill-rule="nonzero"/></svg>